<svg xmlns="http://www.w3.org/2000/svg" width="19.521" height="19.521" viewBox="0 0 19.521 19.521">
  <g id="settings" transform="translate(0 0)">
    <path id="Path_8601" data-name="Path 8601" d="M108.426,114.049a5.627,5.627,0,1,0,5.627-5.627A5.622,5.622,0,0,0,108.426,114.049Zm3.309-.624a.4.4,0,0,1,.245-.344v.7A.388.388,0,0,1,111.735,113.425Zm.214-.935v-.411a2.081,2.081,0,0,1,4.162,0v.4l-.032-.006a.532.532,0,0,0-.183-.325c-.091-.1-.214-.229-.49-.526a.446.446,0,0,0-.572-.07,3.924,3.924,0,0,1-2.373.639.449.449,0,0,0-.451.286Zm4.131.574a.388.388,0,0,1,0,.722Zm-3.528.988V112.77a4.523,4.523,0,0,0,2.5-.682c.249.267.388.413.451.485v1.48a1.478,1.478,0,0,1-2.956,0Zm1.5,2.025a2.051,2.051,0,0,0,.7-.124v.2a.525.525,0,0,0,.281.462,1.382,1.382,0,0,1-2,.013.538.538,0,0,0,.31-.484v-.18A2.238,2.238,0,0,0,114.056,116.077Zm-1.593.776.13.139a1.956,1.956,0,0,0,2.874,0l.142-.151,1.939.751h0c.008,0,.033.015.07.036a5.046,5.046,0,0,1-7.132,0c.035-.019.059-.03.067-.034h0Zm5.544.341a1.647,1.647,0,0,0-.241-.131l-.006,0-2.434-.942v-.491a2.025,2.025,0,0,0,.727-1.247.961.961,0,0,0,.63-1.559v-.741a2.653,2.653,0,1,0-5.305,0v.76a.909.909,0,0,0-.214.585.963.963,0,0,0,.845.955,2.05,2.05,0,0,0,.768,1.28v.458l-.34.132-2.09.81-.006,0a1.624,1.624,0,0,0-.241.131,5.053,5.053,0,1,1,7.908,0Zm0,0" transform="translate(-104.292 -104.288)" fill="#ed9728"/>
    <path id="Path_8602" data-name="Path 8602" d="M273.927,7.522h-1.263a0,0,0,0,1,0,0,7.91,7.91,0,0,0-.644-1.55,0,0,0,0,1,0,0l.894-.894a.888.888,0,0,0,0-1.257L271,1.9a.888.888,0,0,0-1.257,0l-.894.894a0,0,0,0,1,0,0,7.894,7.894,0,0,0-1.55-.644,0,0,0,0,1,0,0V.888A.89.89,0,0,0,266.4,0H265.7a.286.286,0,1,0,0,.572h.705a.317.317,0,0,1,.317.317V2.151a.579.579,0,0,0,.413.552,7.319,7.319,0,0,1,1.438.6.579.579,0,0,0,.683-.1l.894-.894a.317.317,0,0,1,.448,0l1.909,1.909a.317.317,0,0,1,0,.448l-.894.894a.578.578,0,0,0-.1.683,7.329,7.329,0,0,1,.6,1.438.579.579,0,0,0,.552.413h1.263a.317.317,0,0,1,.317.317v.683a.286.286,0,1,0,.572,0V8.41a.89.89,0,0,0-.889-.889Zm0,0" transform="translate(-255.294)" fill="#ed9728"/>
    <path id="Path_8603" data-name="Path 8603" d="M19.236,10.142a.286.286,0,0,0-.286.286v.683a.317.317,0,0,1-.317.317H17.37a.579.579,0,0,0-.552.413,7.327,7.327,0,0,1-.6,1.438.579.579,0,0,0,.1.683l.894.894a.316.316,0,0,1,0,.448L15.3,17.213a.317.317,0,0,1-.448,0l-.894-.894a.579.579,0,0,0-.683-.1,7.321,7.321,0,0,1-1.438.6.579.579,0,0,0-.413.552v1.263a.317.317,0,0,1-.317.317h-2.7a.317.317,0,0,1-.317-.317V17.37a.579.579,0,0,0-.413-.552,7.319,7.319,0,0,1-1.438-.6.579.579,0,0,0-.683.1l-.894.894a.317.317,0,0,1-.448,0L2.309,15.3a.316.316,0,0,1,0-.448l.894-.894a.579.579,0,0,0,.1-.683,7.324,7.324,0,0,1-.6-1.438.579.579,0,0,0-.552-.413H.889a.317.317,0,0,1-.317-.317v-2.7a.317.317,0,0,1,.317-.317H2.151A.579.579,0,0,0,2.7,7.681a7.324,7.324,0,0,1,.6-1.438.579.579,0,0,0-.1-.683l-.894-.894a.316.316,0,0,1,0-.448L4.218,2.309a.317.317,0,0,1,.448,0L5.56,3.2a.579.579,0,0,0,.683.1,7.326,7.326,0,0,1,1.438-.6.579.579,0,0,0,.413-.552V.889A.317.317,0,0,1,8.411.572h.661a.286.286,0,1,0,0-.572H8.411a.89.89,0,0,0-.889.889V2.151a0,0,0,0,1,0,0,7.9,7.9,0,0,0-1.55.644,0,0,0,0,1,0,0L5.07,1.9a.888.888,0,0,0-1.257,0L1.9,3.814a.888.888,0,0,0,0,1.257l.894.894a0,0,0,0,1,0,0,7.9,7.9,0,0,0-.644,1.55,0,0,0,0,1,0,0H.889A.89.89,0,0,0,0,8.411v2.7A.89.89,0,0,0,.889,12H2.151a0,0,0,0,1,0,0,7.89,7.89,0,0,0,.644,1.55,0,0,0,0,1,0,0l-.894.894a.888.888,0,0,0,0,1.257l1.909,1.909a.89.89,0,0,0,1.257,0l.894-.894a0,0,0,0,1,0,0,7.9,7.9,0,0,0,1.55.644,0,0,0,0,1,0,0v1.263a.89.89,0,0,0,.889.889h2.7A.89.89,0,0,0,12,18.633V17.37a0,0,0,0,1,0,0,7.9,7.9,0,0,0,1.55-.644,0,0,0,0,1,0,0l.894.894a.89.89,0,0,0,1.257,0l1.909-1.909a.888.888,0,0,0,0-1.257l-.894-.894a0,0,0,0,1,0,0A7.9,7.9,0,0,0,17.367,12a0,0,0,0,1,0,0h1.263a.89.89,0,0,0,.889-.889v-.683a.286.286,0,0,0-.286-.286Zm0,0" transform="translate(0 0)" fill="#ed9728"/>
  </g>
</svg>
