<svg xmlns="http://www.w3.org/2000/svg" width="19.522" height="19.522" viewBox="0 0 19.522 19.522">
  <g id="contact_us" data-name="contact us" transform="translate(0 0)">
    <path id="Path_8609" data-name="Path 8609" d="M217.259,42.519A1.259,1.259,0,1,0,216,41.259,1.261,1.261,0,0,0,217.259,42.519Zm0-1.889a.63.63,0,1,1-.63.63A.63.63,0,0,1,217.259,40.63Zm0,0" transform="translate(-207.499 -38.426)" fill="#ed9728"/>
    <path id="Path_8610" data-name="Path 8610" d="M18.4,238.041l-2.027-.608v-.478a2.212,2.212,0,0,0,.945-1.807V234.2a2.2,2.2,0,1,0-4.408,0v.945a2.211,2.211,0,0,0,.945,1.807v.478l-1.417.425-1.417-.425v-.478a2.212,2.212,0,0,0,.945-1.807V234.2a2.2,2.2,0,1,0-4.408,0v.945a2.211,2.211,0,0,0,.945,1.807v.478l-1.417.425-1.417-.425v-.478a2.212,2.212,0,0,0,.945-1.807V234.2a2.2,2.2,0,1,0-4.408,0v.945a2.211,2.211,0,0,0,.945,1.807v.478l-2.027.608A1.565,1.565,0,0,0,0,239.549v2.841H19.521v-2.841A1.565,1.565,0,0,0,18.4,238.041Zm-3.286-5.412a1.577,1.577,0,0,1,1.542,1.259h-.839a2.68,2.68,0,0,1-1.193-.282l-.2-.1-.161.161a.764.764,0,0,1-.537.223h-.153a1.577,1.577,0,0,1,1.542-1.259Zm-1.574,2.519v-.63h.184a1.379,1.379,0,0,0,.81-.26,3.312,3.312,0,0,0,1.284.26h.87v.63a1.58,1.58,0,0,1-.787,1.362l-.157.091v.9l-.63.42-.63-.42v-.9l-.157-.091a1.58,1.58,0,0,1-.787-1.362ZM9.761,232.63a1.577,1.577,0,0,1,1.542,1.259h-.839a2.68,2.68,0,0,1-1.193-.282l-.2-.1-.161.161a.764.764,0,0,1-.537.223H8.218a1.577,1.577,0,0,1,1.542-1.259Zm-1.574,2.519v-.63h.184a1.379,1.379,0,0,0,.81-.26,3.312,3.312,0,0,0,1.284.26h.87v.63a1.58,1.58,0,0,1-.787,1.362l-.157.091v.9l-.63.42-.63-.42v-.9l-.157-.091a1.58,1.58,0,0,1-.787-1.362Zm.578,2.863,1,.664,1-.664,2.109.633a.939.939,0,0,1,.673.9v2.212H5.982v-2.212a.939.939,0,0,1,.673-.9ZM4.408,232.63a1.577,1.577,0,0,1,1.542,1.259H5.8a.765.765,0,0,1-.537-.223l-.161-.161-.2.1a2.677,2.677,0,0,1-1.193.282H2.866a1.577,1.577,0,0,1,1.542-1.259Zm-1.574,2.519v-.63H3.7a3.312,3.312,0,0,0,1.284-.26,1.379,1.379,0,0,0,.81.26h.184v.63a1.58,1.58,0,0,1-.787,1.362l-.157.091v.9l-.63.42-.63-.42v-.9l-.157-.091a1.58,1.58,0,0,1-.787-1.362Zm-2.2,4.4a.939.939,0,0,1,.673-.9l2.109-.633,1,.664,1-.664.689.207a1.56,1.56,0,0,0-.74,1.331v2.212H.63Zm18.262,2.212H14.169v-2.212a1.56,1.56,0,0,0-.74-1.331l.689-.207,1,.664,1-.664,2.109.633a.939.939,0,0,1,.673.9Zm0,0" transform="translate(0 -222.869)" fill="#ed9728"/>
    <path id="Path_8611" data-name="Path 8611" d="M26.519,7.557a.274.274,0,0,1,.228.122l.717,1.076.717-1.076a.274.274,0,0,1,.228-.122h3.464a.274.274,0,0,1,.228.122l.717,1.076.717-1.076a.274.274,0,0,1,.228-.122h3.464a.274.274,0,0,1,.228.122l.717,1.076.717-1.076a.274.274,0,0,1,.228-.122,2.519,2.519,0,1,0,0-5.038H35.65V2.292l-.407-.136A2.462,2.462,0,0,0,35.01,1.6l.192-.385L34.436.447l-.385.192a2.5,2.5,0,0,0-.558-.232L33.358,0H32.274l-.136.407a2.471,2.471,0,0,0-.558.232L31.2.447l-.766.766.192.385a2.5,2.5,0,0,0-.232.558l-.408.136v.227H26.518a2.519,2.519,0,1,0,0,5.038Zm4.093-4.811.316-.105.036-.179a1.868,1.868,0,0,1,.279-.673l.1-.152-.149-.3.124-.124.3.149.152-.1a1.868,1.868,0,0,1,.673-.279l.179-.036L32.728.63H32.9l.105.316.179.036a1.872,1.872,0,0,1,.673.279l.152.1.3-.149.124.124-.149.3.1.152a1.863,1.863,0,0,1,.279.673l.036.179.316.105v.176l-.316.105-.036.179a1.872,1.872,0,0,1-.279.673l-.1.152.149.3-.124.124-.3-.149-.152.1a1.868,1.868,0,0,1-.673.279l-.179.036-.105.316h-.176l-.105-.316-.179-.036a1.872,1.872,0,0,1-.673-.279l-.152-.1-.3.149-.124-.124.149-.3-.1-.152a1.868,1.868,0,0,1-.279-.673l-.036-.179-.316-.105Zm-4.093.4h3.464v.227l.407.136a2.468,2.468,0,0,0,.232.558l-.192.385.766.766.385-.192a2.5,2.5,0,0,0,.558.232l.136.407h1.084l.136-.407a2.471,2.471,0,0,0,.558-.232l.385.192.766-.766L35.01,4.07a2.5,2.5,0,0,0,.232-.558l.408-.136V3.149h3.464a1.889,1.889,0,1,1,0,3.778.9.9,0,0,0-.752.4l-.193.29-.193-.29a.9.9,0,0,0-.752-.4H33.76a.9.9,0,0,0-.752.4l-.193.29-.193-.29a.9.9,0,0,0-.752-.4H28.408a.9.9,0,0,0-.752.4l-.193.29-.193-.29a.9.9,0,0,0-.752-.4,1.889,1.889,0,1,1,0-3.778Zm0,0" transform="translate(-23.055)" fill="#ed9728"/>
    <path id="Path_8612" data-name="Path 8612" d="M72,120h.63v.63H72Zm0,0" transform="translate(-69.166 -115.277)" fill="#ed9728"/>
    <path id="Path_8613" data-name="Path 8613" d="M104,120h.63v.63H104Zm0,0" transform="translate(-99.907 -115.277)" fill="#ed9728"/>
    <path id="Path_8614" data-name="Path 8614" d="M136,120h.63v.63H136Zm0,0" transform="translate(-130.647 -115.277)" fill="#ed9728"/>
    <path id="Path_8615" data-name="Path 8615" d="M344,120h.63v.63H344Zm0,0" transform="translate(-330.461 -115.277)" fill="#ed9728"/>
    <path id="Path_8616" data-name="Path 8616" d="M376,120h.63v.63H376Zm0,0" transform="translate(-361.201 -115.277)" fill="#ed9728"/>
    <path id="Path_8617" data-name="Path 8617" d="M408,120h.63v.63H408Zm0,0" transform="translate(-391.942 -115.277)" fill="#ed9728"/>
  </g>
</svg>
