<svg id="Group_2726" data-name="Group 2726" xmlns="http://www.w3.org/2000/svg" width="15.408" height="15.407" viewBox="0 0 15.408 15.407">
  <g id="Group_2725" data-name="Group 2725" transform="translate(0 0)">
    <path id="Path_8657" data-name="Path 8657" d="M102.657,221.782a.257.257,0,0,0-.257.257v1.541a.257.257,0,1,0,.514,0v-1.541A.257.257,0,0,0,102.657,221.782Z" transform="translate(-99.318 -215.108)" fill="#ed9728"/>
    <path id="Path_8658" data-name="Path 8658" d="M3.366.092.938,1.063A1.188,1.188,0,0,0,0,2.331V13.119a1.185,1.185,0,0,0,.932,1.266l2.439.976a1.017,1.017,0,0,0,.361.069A.934.934,0,0,0,4.623,14.4V1.047A.92.92,0,0,0,3.366.092ZM4.109,14.4c0,.306-.152.512-.377.512a.508.508,0,0,1-.175-.034l-2.44-.977c-.485-.18-.6-.334-.6-.787V2.331c0-.453.118-.607.609-.789L3.552.57A.511.511,0,0,1,3.731.535c.226,0,.378.206.378.512Z" transform="translate(0 -0.023)" fill="#ed9728"/>
    <path id="Path_8659" data-name="Path 8659" d="M169.857,34.562h3.627a.771.771,0,0,1,.77.77v3.852a.257.257,0,0,0,.514,0V35.332a1.286,1.286,0,0,0-1.284-1.284h-3.627a.257.257,0,0,0,0,.514Z" transform="translate(-164.496 -33.024)" fill="#ed9728"/>
    <path id="Path_8660" data-name="Path 8660" d="M175.546,298.582a.257.257,0,0,0-.257.257v3.852a.771.771,0,0,1-.77.77h-3.6a.257.257,0,1,0,0,.514h3.6a1.285,1.285,0,0,0,1.284-1.284v-3.852A.257.257,0,0,0,175.546,298.582Z" transform="translate(-165.531 -289.597)" fill="#ed9728"/>
    <path id="Path_8661" data-name="Path 8661" d="M197.473,164.765a.257.257,0,0,0-.056-.084l-2.568-2.568a.257.257,0,1,0-.363.363l2.13,2.13h-8.625a.257.257,0,1,0,0,.514h8.625l-2.13,2.13a.257.257,0,1,0,.363.363l2.568-2.568a.257.257,0,0,0,.056-.28Z" transform="translate(-182.084 -157.162)" fill="#ed9728"/>
  </g>
</svg>
