<svg xmlns="http://www.w3.org/2000/svg" width="17.095" height="14.06" viewBox="0 0 17.095 14.06">
  <g id="photo-camera" transform="translate(0 -2.919)">
    <g id="Group_2848" data-name="Group 2848">
      <g id="Group_2493" data-name="Group 2493" transform="translate(0 4.835)">
        <path id="Path_8406" data-name="Path 8406" d="M16.011,18.749H1.085A1.087,1.087,0,0,1,0,17.663V7.688A1.086,1.086,0,0,1,1.085,6.6H16.011A1.086,1.086,0,0,1,17.1,7.688v9.975A1.086,1.086,0,0,1,16.011,18.749ZM1.085,7.124a.566.566,0,0,0-.566.565v9.975a.566.566,0,0,0,.566.566H16.011a.566.566,0,0,0,.565-.566V7.688a.565.565,0,0,0-.565-.565H1.085Z" transform="translate(0 -6.604)" fill="#9d9ea0"/>
      </g>
      <path id="Path_8407" data-name="Path 8407" d="M18.4,18.552a3.494,3.494,0,1,1,3.494-3.495A3.5,3.5,0,0,1,18.4,18.552Zm0-6.469a2.975,2.975,0,1,0,2.975,2.974A2.978,2.978,0,0,0,18.4,12.083Z" transform="translate(-7.156 -4.15)" fill="#9d9ea0"/>
      <path id="Path_8408" data-name="Path 8408" d="M8.106,5.355H4.977a.26.26,0,0,1-.26-.26V3.179a.26.26,0,0,1,.26-.26h3.13a.26.26,0,0,1,.26.26V5.1A.26.26,0,0,1,8.106,5.355Zm-2.87-.52h2.61v-1.4H5.237Z" transform="translate(-2.265)" fill="#9d9ea0"/>
      <path id="Path_8409" data-name="Path 8409" d="M4.977,18.692a.26.26,0,0,1-.26-.26V11.823a.26.26,0,0,1,.52,0v6.609A.26.26,0,0,1,4.977,18.692Z" transform="translate(-2.265 -4.15)" fill="#9d9ea0"/>
      <path id="Path_8410" data-name="Path 8410" d="M20.832,18.351a.862.862,0,1,1,.861-.862A.863.863,0,0,1,20.832,18.351Zm0-1.2a.342.342,0,1,0,.342.342A.342.342,0,0,0,20.832,17.147Z" transform="translate(-9.589 -6.582)" fill="#9d9ea0"/>
    </g>
  </g>
</svg>
